<svg width="519" height="119" viewBox="0 0 519 119" fill="none" xmlns="http://www.w3.org/2000/svg">
<path d="M33.344 3.98399C38.208 3.98399 42.3893 4.53866 45.888 5.64799C49.4293 6.75733 52.2027 7.93066 54.208 9.168C56.256 10.4053 57.472 11.216 57.856 11.6L52.224 20.624C51.584 20.0693 50.4533 19.28 48.832 18.256C47.2107 17.1893 45.184 16.2507 42.752 15.44C40.32 14.5867 37.5467 14.16 34.432 14.16C29.6107 14.16 25.792 15.1413 22.976 17.104C20.2027 19.024 18.816 21.7547 18.816 25.296C18.816 27.6853 19.5413 29.7973 20.992 31.632C22.4853 33.424 24.576 35.0667 27.264 36.56C29.952 38.0533 33.088 39.5893 36.672 41.168C39.616 42.4053 42.496 43.8133 45.312 45.392C48.1707 46.9707 50.752 48.8267 53.056 50.96C55.4027 53.0933 57.2587 55.568 58.624 58.384C60.032 61.2 60.736 64.4427 60.736 68.112C60.736 71.7387 59.9893 75.0027 58.496 77.904C57.0453 80.8053 54.976 83.28 52.288 85.328C49.6427 87.3333 46.5493 88.8693 43.008 89.936C39.4667 91.0027 35.648 91.536 31.552 91.536C26.3893 91.536 21.7173 90.896 17.536 89.616C13.3973 88.336 10.048 86.992 7.488 85.584C4.97067 84.176 3.52 83.3013 3.136 82.96L9.088 73.552C9.6 73.9787 10.5387 74.6187 11.904 75.472C13.2693 76.2827 14.9547 77.136 16.96 78.032C18.9653 78.928 21.2267 79.696 23.744 80.336C26.2613 80.9333 28.9493 81.232 31.808 81.232C37.5253 81.232 41.856 79.952 44.8 77.392C47.744 74.832 49.216 71.5467 49.216 67.536C49.216 64.464 48.2773 61.8187 46.4 59.6C44.5227 57.3813 42.0267 55.3973 38.912 53.648C35.7973 51.8987 32.3627 50.2133 28.608 48.592C24.768 46.8427 21.248 44.9227 18.048 42.832C14.848 40.7413 12.2667 38.2453 10.304 35.344C8.384 32.4 7.424 28.8587 7.424 24.72C7.424 20.624 8.576 17.0187 10.88 13.904C13.2267 10.7893 16.3627 8.35733 20.288 6.60799C24.256 4.85866 28.608 3.98399 33.344 3.98399ZM69.865 37.456H80.169V15.888H91.241V37.456H104.745V46.992H91.241V72.976C91.241 76.048 91.7743 78.3093 92.841 79.76C93.9503 81.2107 95.4223 81.936 97.257 81.936C98.8783 81.936 100.137 81.6373 101.033 81.04C101.929 80.4427 102.462 80.0373 102.633 79.824L107.049 88.016C106.793 88.2293 106.11 88.6347 105.001 89.232C103.892 89.8293 102.462 90.3627 100.713 90.832C98.9637 91.3013 96.9157 91.536 94.569 91.536C90.473 91.536 87.0383 90.2987 84.265 87.824C81.5343 85.3067 80.169 81.3387 80.169 75.92V46.992H69.865V37.456ZM158.96 90V79.76C158.619 80.8267 157.616 82.2987 155.952 84.176C154.331 86.0533 152.091 87.76 149.232 89.296C146.416 90.7893 143.088 91.536 139.248 91.536C134.384 91.536 129.968 90.384 126 88.08C122.075 85.776 118.939 82.5547 116.592 78.416C114.288 74.2347 113.136 69.3493 113.136 63.76C113.136 58.1707 114.288 53.3067 116.592 49.168C118.939 44.9867 122.075 41.744 126 39.44C129.968 37.0933 134.384 35.92 139.248 35.92C143.045 35.92 146.331 36.6027 149.104 37.968C151.92 39.3333 154.16 40.912 155.824 42.704C157.531 44.496 158.533 46.032 158.832 47.312V37.456H169.84V90H158.96ZM124.144 63.76C124.144 67.5573 124.976 70.8427 126.64 73.616C128.304 76.3893 130.459 78.544 133.104 80.08C135.792 81.5733 138.651 82.32 141.68 82.32C144.923 82.32 147.824 81.552 150.384 80.016C152.944 78.48 154.971 76.3253 156.464 73.552C157.957 70.736 158.704 67.472 158.704 63.76C158.704 60.048 157.957 56.8053 156.464 54.032C154.971 51.216 152.944 49.04 150.384 47.504C147.824 45.9253 144.923 45.136 141.68 45.136C138.651 45.136 135.792 45.904 133.104 47.44C130.459 48.976 128.304 51.1307 126.64 53.904C124.976 56.6773 124.144 59.9627 124.144 63.76ZM195.664 90H184.592V37.456H195.664V46.544H195.344C195.557 45.4347 196.347 44.048 197.712 42.384C199.077 40.72 200.955 39.2267 203.344 37.904C205.733 36.5813 208.592 35.92 211.92 35.92C214.352 35.92 216.485 36.2613 218.32 36.944C220.197 37.584 221.52 38.224 222.288 38.864L217.744 48.08C217.147 47.4827 216.101 46.8853 214.608 46.288C213.115 45.648 211.259 45.328 209.04 45.328C206.224 45.328 203.813 46.2027 201.808 47.952C199.803 49.7013 198.267 51.8133 197.2 54.288C196.176 56.72 195.664 58.9813 195.664 61.072V90ZM229.79 5.52H273.822V15.44H240.67V42.704H271.582V52.56H240.67V90H229.79V5.52ZM362.414 90H351.342V37.456H362.414V46.544H362.094C362.307 45.4347 363.097 44.048 364.462 42.384C365.827 40.72 367.705 39.2267 370.094 37.904C372.483 36.5813 375.342 35.92 378.67 35.92C381.102 35.92 383.235 36.2613 385.07 36.944C386.947 37.584 388.27 38.224 389.038 38.864L384.494 48.08C383.897 47.4827 382.851 46.8853 381.358 46.288C379.865 45.648 378.009 45.328 375.79 45.328C372.974 45.328 370.563 46.2027 368.558 47.952C366.553 49.7013 365.017 51.8133 363.95 54.288C362.926 56.72 362.414 58.9813 362.414 61.072V90ZM420.433 118.096C416.294 118.096 412.54 117.669 409.169 116.816C405.841 115.963 402.918 114.747 400.401 113.168C397.926 111.632 395.942 109.819 394.449 107.728L401.745 100.752C402.556 101.861 403.644 103.035 405.009 104.272C406.417 105.552 408.316 106.64 410.705 107.536C413.094 108.432 416.209 108.88 420.049 108.88C423.804 108.88 426.982 108.069 429.585 106.448C432.188 104.869 434.172 102.715 435.537 99.984C436.902 97.2533 437.585 94.1813 437.585 90.768V89.04H448.465V91.472C448.465 97.2747 447.206 102.139 444.689 106.064C442.214 110.032 438.865 113.019 434.641 115.024C430.417 117.072 425.681 118.096 420.433 118.096ZM437.585 90V79.76C437.244 80.8267 436.241 82.2987 434.577 84.176C432.956 86.0533 430.716 87.76 427.857 89.296C425.041 90.7893 421.713 91.536 417.873 91.536C413.009 91.536 408.593 90.384 404.625 88.08C400.7 85.776 397.564 82.5547 395.217 78.416C392.913 74.2347 391.761 69.3493 391.761 63.76C391.761 58.1707 392.913 53.3067 395.217 49.168C397.564 44.9867 400.7 41.744 404.625 39.44C408.593 37.0933 413.009 35.92 417.873 35.92C421.67 35.92 424.956 36.6027 427.729 37.968C430.545 39.3333 432.785 40.912 434.449 42.704C436.156 44.496 437.158 46.032 437.457 47.312V37.456H448.465V90H437.585ZM402.769 63.76C402.769 67.5573 403.601 70.8427 405.265 73.616C406.929 76.3893 409.084 78.544 411.729 80.08C414.417 81.5733 417.276 82.32 420.305 82.32C423.548 82.32 426.449 81.552 429.009 80.016C431.569 78.48 433.596 76.3253 435.089 73.552C436.582 70.736 437.329 67.472 437.329 63.76C437.329 60.048 436.582 56.8053 435.089 54.032C433.596 51.216 431.569 49.04 429.009 47.504C426.449 45.9253 423.548 45.136 420.305 45.136C417.276 45.136 414.417 45.904 411.729 47.44C409.084 48.976 406.929 51.1307 405.265 53.904C403.601 56.6773 402.769 59.9627 402.769 63.76ZM470.821 66C470.864 69.1573 471.546 72.0373 472.869 74.64C474.192 77.2427 476.154 79.312 478.757 80.848C481.402 82.384 484.645 83.152 488.485 83.152C491.728 83.152 494.48 82.6827 496.741 81.744C499.045 80.7627 500.922 79.6107 502.373 78.288C503.824 76.9227 504.869 75.7067 505.509 74.64L510.949 81.36C509.541 83.408 507.813 85.2 505.765 86.736C503.76 88.272 501.306 89.4453 498.405 90.256C495.504 91.1093 491.962 91.536 487.781 91.536C482.149 91.536 477.264 90.3413 473.125 87.952C469.029 85.52 465.872 82.1707 463.653 77.904C461.434 73.5947 460.325 68.6667 460.325 63.12C460.325 58 461.37 53.392 463.461 49.296C465.552 45.1573 468.581 41.8933 472.549 39.504C476.56 37.1147 481.381 35.92 487.013 35.92C492.176 35.92 496.656 37.008 500.453 39.184C504.293 41.3173 507.258 44.3467 509.349 48.272C511.482 52.1973 512.549 56.8907 512.549 62.352C512.549 62.6933 512.528 63.312 512.485 64.208C512.442 65.0613 512.4 65.6587 512.357 66H470.821ZM501.925 57.616C501.882 55.8667 501.37 53.9467 500.389 51.856C499.45 49.7653 497.914 47.9733 495.781 46.48C493.648 44.9867 490.768 44.24 487.141 44.24C483.386 44.24 480.357 44.9653 478.053 46.416C475.792 47.8667 474.128 49.6373 473.061 51.728C471.994 53.776 471.376 55.7387 471.205 57.616H501.925Z" fill="white"/>
<g clip-path="url(#clip0_574_9)">
<path d="M334.574 64.6994V36.9157L319.893 28.535H305.303L327.324 41.106V53.7681V68.8898L334.574 64.6994Z" fill="#49BEB7"/>
<path d="M296.512 80.4585L319.893 94.1224H319.802L320.165 94.3957L335.208 85.6509L342.458 72.9887L320.346 85.9241L296.512 72.0778V80.4585Z" fill="#49BEB7"/>
<path d="M325.693 72.2608H325.784L312.734 79.7306L319.893 83.9209L343.637 69.9834V52.4023L336.386 39.7401V65.702L325.693 72.2608Z" fill="#49BEB7"/>
<path d="M325.511 42.108L301.768 28.2617L286.725 37.0068L279.475 49.76L301.949 36.7335L312.824 43.1101H312.643L325.511 50.5799V42.108Z" fill="#49BEB7"/>
<path d="M302.131 38.8292L278.387 52.7667V70.2568L285.637 82.9189V56.957L296.331 50.5804L309.38 43.0196L302.131 38.8292Z" fill="#49BEB7"/>
<path d="M287.45 57.9581V85.7419L302.131 94.1224H316.812L294.7 81.5515V68.8894V53.7677L287.45 57.9581Z" fill="#49BEB7"/>
</g>
<defs>
<clipPath id="clip0_574_9">
<rect width="66" height="67" fill="white" transform="translate(278 28)"/>
</clipPath>
</defs>
</svg>
